<svg xmlns="http://www.w3.org/2000/svg" viewBox="0 0 100 125" fill="currentColor"><path d="M50.12,38.503c3.425,0,5.672-2.914,6.203-6.205c0.269-1.655,0.749-4.982,0.853-6.659c0.251-3.892-3.162-7.062-7.057-7.062  c-3.902,0-7.307,3.171-7.059,7.062c0.108,1.677,0.511,5.016,0.856,6.659C44.645,35.795,46.694,38.503,50.12,38.503z"/><path d="M32.898,49.935l-1.118,6.36h36.676l-1.119-6.391c-0.933-4.832-5.238-8.502-10.393-8.502H43.298  C38.125,41.402,33.821,45.087,32.898,49.935z"/><path d="M37.701,74.161v-6.502c-10.125-4.703-17.166-14.962-17.166-26.841c0-16.312,13.271-29.583,29.584-29.583  s29.583,13.271,29.583,29.583c0,11.971-7.152,22.297-17.403,26.949v6.486c13.64-4.984,23.403-18.09,23.403-33.435  c0-19.621-15.963-35.583-35.583-35.583c-19.621,0-35.584,15.963-35.584,35.583C14.535,56.072,24.186,69.111,37.701,74.161z"/><path d="M41.801,62.697c-0.773,0-1.4,0.627-1.4,1.4v21.607H12.487l3.846-3.876c0.544-0.549,0.541-1.435-0.008-1.979  c-0.549-0.545-1.434-0.541-1.98,0.008l-6.23,6.28c-0.262,0.264-0.407,0.621-0.406,0.992c0.002,0.371,0.151,0.727,0.415,0.988  l6.306,6.243c0.273,0.271,0.629,0.405,0.985,0.405c0.36,0,0.721-0.138,0.995-0.415c0.544-0.549,0.539-1.436-0.01-1.979l-3.906-3.867  h29.308c0.773,0,1.4-0.627,1.4-1.4V64.097C43.201,63.324,42.574,62.697,41.801,62.697z"/><path d="M91.886,86.137l-6.231-6.28c-0.547-0.549-1.432-0.553-1.98-0.008c-0.549,0.544-0.552,1.431-0.008,1.979l3.845,3.876H59.6  V64.097c0-0.773-0.627-1.4-1.4-1.4c-0.773,0-1.4,0.627-1.4,1.4v23.007c0,0.773,0.627,1.4,1.4,1.4h29.307L83.6,92.371  c-0.549,0.544-0.554,1.431-0.01,1.98c0.274,0.277,0.635,0.415,0.995,0.415c0.355,0,0.712-0.135,0.985-0.405l6.307-6.243  c0.264-0.262,0.413-0.617,0.415-0.989C92.293,86.758,92.147,86.401,91.886,86.137z"/><path d="M50,63.877c-0.773,0-1.4,0.626-1.4,1.4v28.089c0,0.773,0.627,1.4,1.4,1.4c0.773,0,1.4-0.627,1.4-1.4V65.277  C51.4,64.504,50.773,63.877,50,63.877z"/></svg>