<svg xmlns="http://www.w3.org/2000/svg" viewBox="0 0 96 120" fill="currentColor"><style type="text/css">
	.st0{fill-rule:evenodd;clip-rule:evenodd;}
</style><path d="M54.157,73.572c2.728-1.935,4.513-5.115,4.513-8.707c0-5.884-4.787-10.67-10.67-10.67s-10.67,4.787-10.67,10.67  c0,3.592,1.785,6.772,4.513,8.707c-7.167,2.348-12.552,8.697-13.395,16.571c-0.045,0.415,0.089,0.83,0.369,1.14  c0.279,0.311,0.677,0.488,1.094,0.488l36.177,0c0.417,0,0.815-0.177,1.094-0.488c0.279-0.311,0.413-0.725,0.369-1.14  C66.709,82.269,61.323,75.92,54.157,73.572z M40.273,64.865c0-4.261,3.466-7.728,7.728-7.728s7.728,3.466,7.728,7.728  c0,4.259-3.464,7.725-7.723,7.727c-0.002,0-0.003,0-0.005,0s-0.003,0-0.005,0C43.737,72.59,40.273,69.125,40.273,64.865z   M31.629,88.828c1.589-7.682,8.357-13.291,16.367-13.293c0.001,0,0.003,0,0.004,0c0.001,0,0.003,0,0.004,0  c8.01,0.002,14.778,5.611,16.367,13.293L31.629,88.828z M76.047,27.483c-9.685,0-17.564,7.879-17.564,17.563  c0,9.685,7.879,17.564,17.564,17.564c9.684,0,17.563-7.879,17.563-17.564C93.61,35.362,85.731,27.483,76.047,27.483z M76.047,59.667  c-8.062,0-14.621-6.559-14.621-14.621c0-8.062,6.559-14.621,14.621-14.621c8.062,0,14.621,6.559,14.621,14.621  C90.667,53.108,84.109,59.667,76.047,59.667z M82.746,54.458c-0.291,0.327-0.695,0.494-1.1,0.494c-0.348,0-0.696-0.122-0.977-0.371  c-1.274-1.132-2.916-1.756-4.622-1.756c-1.706,0-3.348,0.624-4.622,1.756c-0.608,0.54-1.538,0.485-2.077-0.123  c-0.54-0.608-0.485-1.538,0.123-2.077c1.814-1.611,4.149-2.499,6.576-2.499c2.427,0,4.762,0.887,6.576,2.499  C83.23,52.92,83.285,53.85,82.746,54.458z M82.27,37.697c-2.054,0-3.724,1.671-3.724,3.724c0,2.054,1.671,3.724,3.724,3.724  c2.053,0,3.724-1.671,3.724-3.724C85.994,39.367,84.324,37.697,82.27,37.697z M82.27,42.202c-0.431,0-0.782-0.351-0.782-0.782  c0-0.431,0.351-0.781,0.782-0.781c0.431,0,0.781,0.351,0.781,0.781C83.052,41.852,82.701,42.202,82.27,42.202z M73.547,41.421  c0-2.053-1.671-3.724-3.724-3.724c-2.054,0-3.724,1.671-3.724,3.724c0,2.054,1.671,3.724,3.724,3.724  C71.877,45.145,73.547,43.474,73.547,41.421z M69.042,41.421c0-0.431,0.351-0.781,0.782-0.781c0.431,0,0.781,0.351,0.781,0.781  c0,0.431-0.351,0.782-0.781,0.782C69.392,42.202,69.042,41.852,69.042,41.421z M48,39.356c9.685,0,17.564-7.879,17.564-17.564  S57.685,4.229,48,4.229s-17.564,7.879-17.564,17.564S38.315,39.356,48,39.356z M48,7.172c8.062,0,14.621,6.559,14.621,14.621  S56.062,36.414,48,36.414s-14.621-6.559-14.621-14.621S39.938,7.172,48,7.172z M43.378,27c1.274,1.132,2.916,1.756,4.622,1.756  c1.706,0,3.348-0.624,4.622-1.756c0.608-0.54,1.538-0.485,2.077,0.123c0.54,0.608,0.485,1.538-0.123,2.077  c-1.814,1.611-4.149,2.499-6.576,2.499c-2.427,0-4.762-0.887-6.576-2.499c-0.607-0.54-0.662-1.469-0.123-2.077  C41.841,26.516,42.771,26.46,43.378,27z M54.224,21.892c2.053,0,3.724-1.671,3.724-3.724s-1.671-3.724-3.724-3.724  c-2.054,0-3.724,1.671-3.724,3.724S52.17,21.892,54.224,21.892z M54.224,17.386c0.431,0,0.781,0.351,0.781,0.782  c0,0.431-0.351,0.782-0.781,0.782c-0.431,0-0.782-0.351-0.782-0.782C53.442,17.736,53.793,17.386,54.224,17.386z M41.776,21.892  c2.054,0,3.724-1.671,3.724-3.724s-1.671-3.724-3.724-3.724c-2.053,0-3.724,1.671-3.724,3.724S39.723,21.892,41.776,21.892z   M41.776,17.386c0.431,0,0.782,0.351,0.782,0.782c0,0.431-0.351,0.782-0.782,0.782c-0.431,0-0.781-0.351-0.781-0.782  C40.995,17.736,41.346,17.386,41.776,17.386z M37.517,45.046c0-9.684-7.879-17.563-17.564-17.563S2.39,35.362,2.39,45.046  c0,9.685,7.879,17.564,17.564,17.564S37.517,54.731,37.517,45.046z M19.954,59.667c-8.062,0-14.621-6.559-14.621-14.621  c0-8.062,6.559-14.621,14.621-14.621s14.621,6.559,14.621,14.621C34.574,53.108,28.016,59.667,19.954,59.667z M24.798,51.353  c0,0.813-0.659,1.471-1.471,1.471H16.58c-0.813,0-1.471-0.659-1.471-1.471c0-0.813,0.659-1.471,1.471-1.471h6.747  C24.14,49.882,24.798,50.541,24.798,51.353z M26.177,37.697c-2.053,0-3.724,1.671-3.724,3.724c0,2.054,1.671,3.724,3.724,3.724  s3.724-1.671,3.724-3.724C29.901,39.367,28.231,37.697,26.177,37.697z M26.177,42.202c-0.431,0-0.781-0.351-0.781-0.782  c0-0.431,0.351-0.781,0.781-0.781c0.431,0,0.781,0.351,0.781,0.781C26.959,41.852,26.608,42.202,26.177,42.202z M17.454,41.421  c0-2.053-1.671-3.724-3.724-3.724c-2.054,0-3.724,1.671-3.724,3.724c0,2.054,1.671,3.724,3.724,3.724  C15.783,45.145,17.454,43.474,17.454,41.421z M13.73,42.202c-0.431,0-0.782-0.351-0.782-0.782c0-0.431,0.351-0.781,0.782-0.781  c0.431,0,0.781,0.351,0.781,0.781C14.511,41.852,14.161,42.202,13.73,42.202z M48,41.712c0.813,0,1.471,0.659,1.471,1.471v7.193  c0,0.813-0.659,1.471-1.471,1.471s-1.471-0.659-1.471-1.471v-7.193C46.529,42.37,47.187,41.712,48,41.712z M58.094,57.338  l2.178-1.258c0.704-0.407,1.604-0.165,2.01,0.538c0.406,0.704,0.165,1.603-0.538,2.01l-2.178,1.258  c-0.232,0.134-0.485,0.197-0.734,0.197c-0.509,0-1.003-0.264-1.276-0.736C57.149,58.644,57.39,57.745,58.094,57.338z M37.906,57.339  c0.704,0.406,0.945,1.306,0.538,2.01c-0.272,0.472-0.767,0.736-1.276,0.736c-0.25,0-0.503-0.064-0.734-0.197l-2.179-1.258  c-0.704-0.406-0.945-1.306-0.538-2.01c0.406-0.704,1.306-0.945,2.01-0.538L37.906,57.339z"/></svg>