<svg xmlns="http://www.w3.org/2000/svg" viewBox="0 0 95 118.75" fill="currentColor"><path d="M67.6,69.746a2.754,2.754,0,0,0-1.892-.958,2.865,2.865,0,0,0-1.155.166l-3.765-4.39a21.767,21.767,0,1,0-17.457,6.725q.852.064,1.7.065A21.558,21.558,0,0,0,55.777,68.49l3.948,4.6a2.771,2.771,0,0,0,.318,3.133l8.005,9.333a2.754,2.754,0,0,0,1.893.958c.072.005.144.008.217.008a2.753,2.753,0,0,0,1.8-.666l3.347-2.871a2.775,2.775,0,0,0,.3-3.909ZM43.529,68.7a19.187,19.187,0,1,1,14.7-5.284,1.205,1.205,0,0,0-.223.159c-.179.2-.367.392-.561.582A18.986,18.986,0,0,1,43.529,68.7Zm14.939-1.954q.222-.19.435-.387L62.459,70.5l-.883.757L58.02,67.114C58.171,66.993,58.321,66.87,58.468,66.744ZM73.614,81.016l-3.347,2.871a.2.2,0,0,1-.246-.019l-8.006-9.334a.178.178,0,0,1,.02-.245l3.349-2.871a.19.19,0,0,1,.243.019l8.005,9.334A.177.177,0,0,1,73.614,81.016ZM56.751,61.289A16.6,16.6,0,0,0,34.185,36.981h0A16.624,16.624,0,0,0,32.39,60.394c.269.314.558.6.847.9.018.02.026.045.045.065.034.033.071.061.105.094.263.258.541.5.819.737.134.115.262.237.4.346.366.3.746.567,1.133.828.051.034.1.073.149.106a16.511,16.511,0,0,0,7.839,2.675q.651.05,1.3.049a16.48,16.48,0,0,0,10.783-4l0,0c.312-.269.613-.547.9-.833C56.725,61.334,56.733,61.309,56.751,61.289ZM35.875,38.953h0a14,14,0,0,1,20,19.431,14.169,14.169,0,0,0-21.764,0A14.015,14.015,0,0,1,35.875,38.953Zm3.167,23.3c-.312-.145-.618-.307-.92-.477-.09-.05-.18-.1-.269-.153-.251-.148-.5-.308-.741-.473q-.2-.138-.4-.284c-.2-.148-.4-.3-.6-.463-.061-.051-.119-.105-.179-.156a11.589,11.589,0,0,1,18.126.007q-.492.418-1.013.787c-.28.2-.569.374-.86.547-.069.042-.136.089-.206.13a14.137,14.137,0,0,1-12.871.566Zm5.951-10.561a6.414,6.414,0,1,0-6.414-6.414A6.422,6.422,0,0,0,44.993,51.694Zm0-10.23a3.817,3.817,0,1,1-3.817,3.816A3.821,3.821,0,0,1,44.993,41.464ZM89.27,23.36V17.706l-2.7-.878a13.2,13.2,0,0,0-1.119-2.7L86.739,11.6l-4-4-2.533,1.29a13.2,13.2,0,0,0-2.7-1.119l-.879-2.7H70.976l-.879,2.7a13.237,13.237,0,0,0-2.7,1.119L64.865,7.6l-4,4,1.29,2.533a13.19,13.19,0,0,0-1.119,2.7l-2.7.878V23.36l2.7.877a13.184,13.184,0,0,0,1.12,2.7l-1.29,2.535,4,4,2.532-1.29A13.171,13.171,0,0,0,70.1,33.3l.879,2.7h5.652l.879-2.7a13.192,13.192,0,0,0,2.7-1.12l2.533,1.29,4-4-1.289-2.533a13.143,13.143,0,0,0,1.119-2.7Zm-4.883-1.145-.164.717A10.572,10.572,0,0,1,82.867,26.2l-.392.624,1.091,2.141L82.238,30.3,80.1,29.206l-.624.391a10.609,10.609,0,0,1-3.27,1.357l-.717.164L74.742,33.4h-1.88l-.74-2.284-.719-.164A10.646,10.646,0,0,1,68.131,29.6l-.624-.391L65.367,30.3l-1.329-1.329,1.092-2.14-.392-.625a10.576,10.576,0,0,1-1.357-3.271l-.164-.717-2.283-.743V19.593l2.282-.741.165-.717a10.633,10.633,0,0,1,1.357-3.273l.392-.625L64.038,12.1l1.33-1.33,2.139,1.091.624-.391A10.6,10.6,0,0,1,71.4,10.112l.72-.165.739-2.284h1.88l.743,2.284.717.165a10.586,10.586,0,0,1,3.27,1.356l.624.391,2.142-1.091L83.567,12.1l-1.091,2.141.391.624a10.592,10.592,0,0,1,1.356,3.271l.164.718,2.285.742v1.879ZM73.8,12.827a7.706,7.706,0,1,0,7.707,7.706A7.714,7.714,0,0,0,73.8,12.827Zm0,12.815a5.109,5.109,0,1,1,5.109-5.109A5.114,5.114,0,0,1,73.8,25.642Zm-51.439,11.2a1.3,1.3,0,1,1,0,2.6H14.5V54.361a1.3,1.3,0,0,1-2.6,0V38.138a1.3,1.3,0,0,1,1.3-1.3ZM8.552,29.016H31.48a1.3,1.3,0,0,0,1.3-1.3V16.061a1.3,1.3,0,0,0-1.3-1.3H26.772a1.3,1.3,0,0,0-1.3,1.3V26.418H23.923v-15a1.3,1.3,0,0,0-1.3-1.3H17.916a1.3,1.3,0,0,0-1.3,1.3v15H14.559V7.635a1.3,1.3,0,0,0-1.3-1.3H8.552a1.3,1.3,0,0,0-1.3,1.3V27.717A1.3,1.3,0,0,0,8.552,29.016ZM28.071,17.36h2.11v9.058h-2.11Zm-8.856-4.643h2.11v13.7h-2.11ZM9.851,8.934h2.11V26.418H9.851ZM39.031,21.6a1.3,1.3,0,0,1,1.3-1.3h9.163a1.3,1.3,0,0,1,1.3,1.3v4.676a1.3,1.3,0,1,1-2.6,0V22.9H40.33A1.3,1.3,0,0,1,39.031,21.6ZM82.3,40.173v6.983a1.3,1.3,0,0,1-1.3,1.3H71.646a1.3,1.3,0,0,1,0-2.6H79.7V40.173a1.3,1.3,0,0,1,2.6,0ZM16.724,69.151a1.3,1.3,0,0,1,.1,1.834L13.491,74.7a1.3,1.3,0,0,1-.936.432h-.031a1.3,1.3,0,0,1-.924-.387L9.478,72.591a1.3,1.3,0,1,1,1.85-1.824l1.152,1.169,2.41-2.685A1.3,1.3,0,0,1,16.724,69.151ZM7.029,79.374h12.2a1.3,1.3,0,0,0,1.3-1.3v-12.2a1.3,1.3,0,0,0-1.3-1.3H7.029a1.3,1.3,0,0,0-1.3,1.3v12.2A1.3,1.3,0,0,0,7.029,79.374Zm1.3-12.2h9.6v9.6h-9.6ZM22.991,68.86a1.3,1.3,0,0,1,1.3-1.3h4.35a1.3,1.3,0,1,1,0,2.6H24.29A1.3,1.3,0,0,1,22.991,68.86Zm17.028,6.229a1.3,1.3,0,0,1-1.3,1.3H24.29a1.3,1.3,0,1,1,0-2.6H38.72A1.3,1.3,0,0,1,40.019,75.089Zm0,7.9a1.3,1.3,0,0,1-1.3,1.3H7.029a1.3,1.3,0,1,1,0-2.6H38.72A1.3,1.3,0,0,1,40.019,82.986Zm0,5.65a1.3,1.3,0,0,1-1.3,1.3H7.029a1.3,1.3,0,1,1,0-2.6H38.72A1.3,1.3,0,0,1,40.019,88.636Z"/></svg>